<svg width="24" height="24" viewBox="0 0 24 24" fill="none" xmlns="http://www.w3.org/2000/svg">
<path d="M7.125 10.5C6.82663 10.5 6.54048 10.6185 6.3295 10.8295C6.11853 11.0405 6 11.3266 6 11.625C6 11.9234 6.11853 12.2095 6.3295 12.4205C6.54048 12.6315 6.82663 12.75 7.125 12.75H13.875C14.1734 12.75 14.4595 12.6315 14.6705 12.4205C14.8815 12.2095 15 11.9234 15 11.625C15 11.3266 14.8815 11.0405 14.6705 10.8295C14.4595 10.6185 14.1734 10.5 13.875 10.5H7.125ZM7.5 7.125C7.5 6.82663 7.61853 6.54048 7.8295 6.3295C8.04048 6.11853 8.32663 6 8.625 6H16.875C17.1734 6 17.4595 6.11853 17.6705 6.3295C17.8815 6.54048 18 6.82663 18 7.125C18 7.42337 17.8815 7.70952 17.6705 7.9205C17.4595 8.13147 17.1734 8.25 16.875 8.25H8.625C8.32663 8.25 8.04048 8.13147 7.8295 7.9205C7.61853 7.70952 7.5 7.42337 7.5 7.125ZM10.125 15C9.82663 15 9.54048 15.1185 9.3295 15.3295C9.11853 15.5405 9 15.8266 9 16.125C9 16.4234 9.11853 16.7095 9.3295 16.9205C9.54048 17.1315 9.82663 17.25 10.125 17.25H16.875C17.1734 17.25 17.4595 17.1315 17.6705 16.9205C17.8815 16.7095 18 16.4234 18 16.125C18 15.8266 17.8815 15.5405 17.6705 15.3295C17.4595 15.1185 17.1734 15 16.875 15H10.125Z" fill="#DB9291"/>
<path d="M0 2.625C0 1.176 1.176 0 2.625 0H21.375C22.824 0 24 1.176 24 2.625V21.375C24 22.0712 23.7234 22.7389 23.2312 23.2312C22.7389 23.7234 22.0712 24 21.375 24H2.625C1.92881 24 1.26113 23.7234 0.768845 23.2312C0.276562 22.7389 0 22.0712 0 21.375L0 2.625ZM2.625 2.25C2.52554 2.25 2.43016 2.28951 2.35984 2.35984C2.28951 2.43016 2.25 2.52554 2.25 2.625V21.375C2.25 21.582 2.418 21.75 2.625 21.75H21.375C21.4745 21.75 21.5698 21.7105 21.6402 21.6402C21.7105 21.5698 21.75 21.4745 21.75 21.375V2.625C21.75 2.52554 21.7105 2.43016 21.6402 2.35984C21.5698 2.28951 21.4745 2.25 21.375 2.25H2.625Z" fill="#DB9291"/>
</svg>
