<svg width="12" height="12" viewBox="0 0 12 12" fill="none" xmlns="http://www.w3.org/2000/svg">
<path fill-rule="evenodd" clip-rule="evenodd" d="M2.8665 1.0215C3.475 0.416503 4.477 0.524003 4.9865 1.205L5.6175 2.047C6.0325 2.601 5.9955 3.375 5.503 3.8645L5.384 3.9835C5.3705 4.03346 5.36913 4.08591 5.38 4.1365C5.4115 4.3405 5.582 4.7725 6.296 5.4825C7.01 6.1925 7.445 6.3625 7.652 6.3945C7.70416 6.40499 7.75802 6.40345 7.8095 6.39L8.0135 6.187C8.4515 5.752 9.1235 5.6705 9.6655 5.965L10.6205 6.485C11.439 6.929 11.6455 8.041 10.9755 8.7075L10.265 9.4135C10.041 9.636 9.74 9.8215 9.373 9.856C8.468 9.9405 6.3595 9.8325 4.143 7.629C2.0745 5.572 1.6775 3.778 1.627 2.894C1.602 2.447 1.813 2.069 2.082 1.802L2.8665 1.0215ZM4.3865 1.6545C4.133 1.316 3.661 1.289 3.395 1.5535L2.61 2.3335C2.445 2.4975 2.366 2.6785 2.376 2.8515C2.416 3.554 2.736 5.1725 4.672 7.0975C6.703 9.1165 8.5785 9.177 9.3035 9.109C9.4515 9.0955 9.5985 9.0185 9.736 8.882L10.446 8.1755C10.735 7.8885 10.6715 7.3655 10.2625 7.1435L9.3075 6.624C9.0435 6.481 8.7345 6.528 8.5425 6.719L8.315 6.9455L8.05 6.6795C8.315 6.9455 8.3145 6.946 8.314 6.946L8.3135 6.947L8.312 6.9485L8.3085 6.9515L8.301 6.9585C8.2799 6.97809 8.25715 6.99583 8.233 7.0115C8.193 7.038 8.14 7.0675 8.0735 7.092C7.9385 7.1425 7.7595 7.1695 7.5385 7.1355C7.105 7.069 6.5305 6.7735 5.767 6.0145C5.004 5.2555 4.706 4.6845 4.639 4.2515C4.6045 4.0305 4.632 3.8515 4.683 3.7165C4.71107 3.64054 4.75125 3.56962 4.802 3.5065L4.818 3.489L4.825 3.4815L4.828 3.4785L4.8295 3.477L4.8305 3.476L4.9745 3.333C5.1885 3.1195 5.2185 2.766 5.017 2.4965L4.3865 1.6545Z" fill="black"/>
</svg>
